<svg id="OBJECTS" xmlns="http://www.w3.org/2000/svg" viewBox="0 0 101.7 131.34"><defs><style>.cls-1{fill:#fdba74;}.cls-2{fill:#4b4f75;}</style></defs><path class="cls-1" d="M72.09,7.63H38.71L29,21.18l18,17.17a51,51,0,0,1,17.42,0L81.73,21.15Zm-1.24,6.59,3,4.24H67.82Zm-15.45,0,3,4.24H52.37ZM40,14.22l3,4.24h-6ZM38.28,23.3H46l4.11,11.25Zm9.4-6.59-3-4.24H50.7ZM55.75,36,51.13,23.3h8.68Zm10.4-23.5-3,4.24-3-4.24ZM61.23,34.72,64.89,23.3h7.82Z" transform="translate(-5.05 -7.63)"/><path class="cls-1" d="M91.55,124.34a32.94,32.94,0,0,0,.68-9.54,35.3,35.3,0,0,0-5.84-16.93c4.81,3.51,9.72,1.28,10.5-5.93.12-1.26.19-2.53.19-3.82A41.16,41.16,0,0,0,23.55,62.69a24.65,24.65,0,0,1-3.87-10.21,50.82,50.82,0,1,1,71.87,71.86Z" transform="translate(-5.05 -7.63)"/><path class="cls-2" d="M55.9,139A50.84,50.84,0,0,1,7.45,72.69a43,43,0,0,1,2.1-17.58,30.38,30.38,0,0,0,1,10.12,38.51,38.51,0,0,0,2.25,6.46l.15.36A47.14,47.14,0,0,0,16,77.81a40.8,40.8,0,0,0-1.31,10.31A41.22,41.22,0,0,0,55.9,129.3c18.22,0,24.82-17.6,9.53-26.66C55,96.48,32.6,87.14,21.28,72.22c-9-11.85-6.55-31.19,3.55-34.95-4.15,3-6,8.89-5.15,15.21a24.65,24.65,0,0,0,3.87,10.21,26.47,26.47,0,0,0,6.12,6.53c13.54,10.3,29.26,16.68,41.92,24C94,106,86,139,55.9,139Z" transform="translate(-5.05 -7.63)"/></svg>