<svg width="75" height="75" viewBox="0 0 75 75" fill="none" xmlns="http://www.w3.org/2000/svg">
<path d="M37.5 3C18.4639 3 3 18.4639 3 37.5C3 56.5361 18.4639 72 37.5 72C56.5361 72 72 56.5361 72 37.5C72 18.4639 56.5361 3 37.5 3ZM37.5 6C54.9147 6 69 20.0853 69 37.5C69 54.9147 54.9147 69 37.5 69C20.0853 69 6 54.9147 6 37.5C6 20.0853 20.0853 6 37.5 6ZM24 18C21.5325 18 19.5 20.0325 19.5 22.5C19.5 24.9675 21.5325 27 24 27C26.4675 27 28.5 24.9675 28.5 22.5C28.5 20.0325 26.4675 18 24 18ZM24 21C24.8462 21 25.5 21.6538 25.5 22.5C25.5 23.3462 24.8462 24 24 24C23.1538 24 22.5 23.3462 22.5 22.5C22.5 21.6538 23.1538 21 24 21ZM21 28.5C20.6022 28.5 20.2207 28.6581 19.9394 28.9394C19.6581 29.2207 19.5 29.6022 19.5 30V52.5C19.5 52.8978 19.6581 53.2793 19.9394 53.5606C20.2207 53.8419 20.6022 54 21 54H27C27.3978 54 27.7793 53.8419 28.0606 53.5606C28.3419 53.2793 28.5 52.8978 28.5 52.5V30C28.5 29.6022 28.3419 29.2207 28.0606 28.9394C27.7793 28.6581 27.3978 28.5 27 28.5H21ZM33 28.5C32.6022 28.5 32.2207 28.6581 31.9394 28.9394C31.6581 29.2207 31.5 29.6022 31.5 30V52.5C31.5 52.8978 31.6581 53.2793 31.9394 53.5606C32.2207 53.8419 32.6022 54 33 54H39C39.3978 54 39.7793 53.8419 40.0606 53.5606C40.3419 53.2793 40.5 52.8978 40.5 52.5V41.25C40.5 39.1807 42.1807 37.5 44.25 37.5C46.3193 37.5 48 39.1807 48 41.25V45V52.5C48 52.8978 48.1581 53.2793 48.4394 53.5606C48.7207 53.8419 49.1022 54 49.5 54H55.5C55.8978 54 56.2793 53.8419 56.5606 53.5606C56.8419 53.2793 57 52.8978 57 52.5V39.75C57 33.5544 51.9456 28.5 45.75 28.5C43.8203 28.5 42.0896 29.1242 40.5 29.9854C40.4961 29.5901 40.3363 29.2123 40.0555 28.9342C39.7746 28.6561 39.3953 28.5 39 28.5H33ZM22.5 31.5H25.5V51H22.5V31.5ZM34.5 31.5H37.5V32.7246C37.5 33.0188 37.5866 33.3065 37.7489 33.5519C37.9111 33.7973 38.142 33.9895 38.4127 34.1048C38.6834 34.22 38.982 34.253 39.2713 34.1999C39.5607 34.1467 39.828 34.0096 40.04 33.8057C41.5263 32.378 43.525 31.5 45.75 31.5C50.3244 31.5 54 35.1756 54 39.75V51H51V45V41.25C51 37.5443 47.9557 34.5 44.25 34.5C40.5443 34.5 37.5 37.5443 37.5 41.25V51H34.5V31.5Z" fill="#FE7336"/>
</svg>
