<svg width="75" height="75" viewBox="0 0 75 75" fill="none" xmlns="http://www.w3.org/2000/svg">
<g clip-path="url(#clip0_7_358)">
<path d="M22.4209 13.3828C22.3935 13.383 22.3662 13.384 22.3389 13.3857L21.1699 13.4355C21.1513 13.4372 21.1328 13.4391 21.1143 13.4414C17.6213 13.7264 14.4099 15.1982 11.9238 17.1504L11.918 17.1533C9.47945 19.0862 7.61348 21.3783 6.14356 23.7305C4.66173 26.0819 3.53882 28.5292 2.63965 30.9961C2.63865 31.001 2.63767 31.0059 2.63672 31.0107C0.884769 35.9589 -0.0591114 41.0979 -0.076169 46.4121C-0.0762033 46.418 -0.0762033 46.4238 -0.076169 46.4297C-0.0526962 49.2042 0.299229 52.1733 1.46192 55.1484C2.6124 58.1259 4.80276 61.2981 8.3584 63.1113H8.36133L8.36426 63.1143C10.1316 64.0216 12.0997 64.4766 14.0039 64.4883C16.1601 64.5351 18.1195 63.9265 19.667 63.1787C19.6719 63.1768 19.6768 63.1748 19.6816 63.1729C22.7143 61.6703 24.8138 59.6522 26.6074 57.7529C26.6123 57.7481 26.6172 57.7432 26.6221 57.7383C30.2001 53.8502 32.822 49.6625 35.2119 45.4863V45.4834C36.0393 44.0446 36.7546 42.5678 37.5 41.1006C38.2458 42.5686 38.9602 44.0468 39.7881 45.4863C42.1778 49.6607 44.7998 53.85 48.3779 57.7383C48.3828 57.7432 48.3877 57.7481 48.3926 57.7529C50.1874 59.6534 52.2851 61.6716 55.3184 63.1729C55.3232 63.1748 55.3281 63.1768 55.333 63.1787C56.8813 63.9269 58.8414 64.5334 60.9961 64.4883C62.9003 64.4766 64.8684 64.0216 66.6357 63.1143L66.6416 63.1113C70.1942 61.298 72.384 58.1302 73.5352 55.1543C74.6998 52.1771 75.0527 49.2061 75.0762 46.4297C75.0762 46.4238 75.0762 46.418 75.0762 46.4121C75.059 41.0991 74.1135 35.9585 72.3633 31.0107C72.3623 31.0068 72.3613 31.0029 72.3604 30.999C71.4629 28.5323 70.3407 26.0829 68.8594 23.7334C67.3895 21.3812 65.5206 19.0891 63.082 17.1562L63.0762 17.1504C60.5901 15.1982 57.3787 13.7264 53.8857 13.4414C53.8682 13.4401 53.8506 13.4391 53.833 13.4385L52.6641 13.3857C52.6357 13.3849 52.6074 13.3849 52.5791 13.3857C52.1805 13.3901 51.6864 13.3925 51.1553 13.459C50.176 13.5538 49.272 13.7681 48.4453 14.0186C48.4414 14.0195 48.4375 14.0205 48.4336 14.0215C46.7235 14.5544 45.2531 15.3373 43.9775 16.1748L43.9717 16.1807C41.4409 17.8668 39.4892 19.8413 37.7871 21.7881C37.6806 21.9096 37.6009 22.0192 37.5 22.1396C37.3999 22.0197 37.3213 21.9091 37.2158 21.7881L37.2129 21.7852C35.5102 19.8409 33.5619 17.8683 31.0313 16.1807C31.0283 16.1787 31.0254 16.1767 31.0225 16.1748C29.7461 15.3377 28.2749 14.5544 26.5664 14.0215C26.5625 14.0205 26.5586 14.0195 26.5547 14.0186C25.7269 13.7683 24.8229 13.5508 23.8447 13.4561C23.3149 13.39 22.8186 13.3872 22.4209 13.3828ZM22.4297 16.3857C22.8232 16.3904 23.2135 16.3967 23.4902 16.4326C23.5078 16.4349 23.5254 16.4368 23.543 16.4385C24.2615 16.5067 24.9695 16.6746 25.6816 16.8896H25.6875C27.0595 17.3196 28.2687 17.9565 29.376 18.6826C31.596 20.1647 33.3411 21.9175 34.957 23.7627C35.4083 24.2806 35.8383 24.8446 36.3076 25.4355C36.3115 25.4405 36.3154 25.4453 36.3193 25.4502L36.3252 25.4561C36.3459 25.4812 36.3674 25.5056 36.3897 25.5293C38.5083 27.8626 39.9487 30.3703 41.0889 32.2705C41.1481 32.3712 41.2189 32.4646 41.2998 32.5488C42.9568 35.589 44.8379 39.0018 46.5791 41.8184C46.581 41.8223 46.583 41.8262 46.585 41.8301C48.9937 45.6501 51.6127 49.4143 54.5947 52.5352L54.6006 52.5381C56.2103 54.2073 58.4539 55.5088 61.3271 55.5088C62.3398 55.5088 63.3661 55.3382 64.3037 54.8438C65.2396 54.3503 66.0528 53.4875 66.4717 52.374C67.1651 50.568 67.4289 48.5124 67.4209 46.4268V46.418C67.3801 42.1192 66.5378 37.7065 65.0566 33.6475L65.0537 33.6416C63.5931 29.5894 61.3927 25.6963 58.3125 23.2646C58.3086 23.2617 58.3047 23.2588 58.3008 23.2559C56.7555 22.0625 55.0432 21.3207 53.2471 21.1553C53.2237 21.1537 53.2002 21.1528 53.1768 21.1523L52.6113 21.126C52.5713 21.1244 52.5312 21.1244 52.4912 21.126C52.4063 21.129 52.2059 21.1299 51.9521 21.1582C51.4825 21.1914 51.0871 21.2895 50.7422 21.3838C50.7344 21.3867 50.7265 21.3896 50.7188 21.3926C49.8611 21.642 49.0175 22.0595 48.1816 22.5938H48.1787C46.5041 23.667 44.9427 25.1567 43.4912 26.7861C42.936 27.4072 42.4862 27.9514 42.0498 28.4268C41.2884 27.1976 40.5063 25.9964 39.3691 24.5977C39.5912 24.3199 39.8178 24.0225 40.043 23.7656L40.0459 23.7627C41.6618 21.9145 43.4086 20.1616 45.6328 18.6797C46.7396 17.9537 47.9485 17.3158 49.3242 16.8867H49.3271C50.0352 16.6728 50.742 16.5094 51.46 16.4414C51.4776 16.4398 51.4952 16.4378 51.5127 16.4355C51.7978 16.3985 52.1966 16.3903 52.6025 16.3857H52.6113L53.6426 16.4326H53.6455C56.4387 16.6612 59.1547 17.8892 61.2217 19.5117H61.2246C63.3398 21.1898 64.9887 23.1997 66.3164 25.3242L66.3193 25.3271C67.6652 27.4609 68.6973 29.7111 69.5391 32.0244C71.1796 36.6667 72.0582 41.4498 72.0762 46.4033V46.4121C72.0762 46.4151 72.0762 46.4179 72.0762 46.4209C72.0534 48.9578 71.7333 51.5305 70.7432 54.0615L70.7402 54.0674C69.7944 56.5151 68.006 59.0494 65.2734 60.4424H65.2705C63.9492 61.1216 62.4026 61.4835 60.9727 61.4912C60.9639 61.4911 60.9551 61.4911 60.9463 61.4912C59.4043 61.5262 57.8615 61.0676 56.6396 60.4775H56.6367C54.0768 59.208 52.3009 57.5219 50.5869 55.708L50.584 55.7051C47.2401 52.0708 44.7418 48.0959 42.3926 43.9922L42.3897 43.9893C41.1269 41.7938 39.9667 39.5229 38.8623 37.2334C38.8589 37.2263 38.854 37.22 38.8506 37.2129C38.8318 37.1729 38.8113 37.1338 38.7891 37.0957C38.7865 37.0915 38.7828 37.0854 38.7803 37.0811C38.7755 37.0732 38.7706 37.0654 38.7656 37.0576C37.6977 35.2649 36.2756 32.8316 34.875 31.04C34.8387 30.9674 34.7966 30.8978 34.749 30.832C34.7376 30.8168 34.7253 30.8033 34.7139 30.7881C33.6757 29.3993 32.6344 28.0453 31.5088 26.7861C30.0573 25.1567 28.4959 23.667 26.8213 22.5938H26.8184C25.9826 22.0595 25.1389 21.642 24.2813 21.3926C24.2764 21.3906 24.2715 21.3886 24.2666 21.3867C23.9135 21.2881 23.5104 21.1877 23.042 21.1553C22.793 21.1281 22.5927 21.129 22.5088 21.126C22.4688 21.1244 22.4287 21.1244 22.3887 21.126L21.8232 21.1523C21.7998 21.1528 21.7763 21.1537 21.7529 21.1553C19.9569 21.3207 18.2438 22.0617 16.6992 23.2559C16.6953 23.2588 16.6914 23.2617 16.6875 23.2646C13.605 25.6963 11.404 29.5932 9.94336 33.6475C8.46216 37.7065 7.61987 42.1193 7.5791 46.418V46.4268C7.5727 48.5128 7.83656 50.5709 8.53125 52.377V52.3828C9.22211 54.2188 10.3264 55.6411 11.7627 56.3936H11.7656L11.7686 56.3965C12.4563 56.7575 13.2592 56.9621 14.1035 56.9795C14.865 57.0234 15.6451 56.8447 16.4707 56.4814L16.4766 56.4756C18.183 55.7139 19.8198 54.3258 21.3223 52.7695L21.3281 52.7637C24.3082 49.6417 26.9278 45.8813 29.3379 42.0615C29.3408 42.0576 29.3438 42.0537 29.3467 42.0498C30.8441 39.6269 32.2318 37.1214 33.624 34.6084C34.3646 35.7304 35.09 36.8021 35.7686 37.9424C34.7689 39.9879 33.7407 42.024 32.6104 43.9893L32.6074 43.9922C30.2583 48.0972 27.7599 52.0707 24.416 55.7051L24.4131 55.708C22.6995 57.5215 20.9184 59.2089 18.3545 60.4805C17.1327 61.0697 15.5949 61.5273 14.0566 61.4912C14.0469 61.4911 14.0371 61.4911 14.0273 61.4912C12.5975 61.4832 11.0508 61.1216 9.7295 60.4424L9.72657 60.4395C6.99478 59.0482 5.20563 56.5153 4.25977 54.0674L4.25684 54.0615C3.26673 51.5305 2.94665 48.9578 2.92383 46.4209V46.4033C2.94179 41.4451 3.81725 36.66 5.46094 32.0156L5.46387 32.0098C6.30629 29.7011 7.34034 27.4581 8.6836 25.3271L8.68653 25.3213C10.0156 23.1945 11.6628 21.185 13.7813 19.5059C15.8481 17.8838 18.5647 16.6582 21.3574 16.4297H21.3604L22.4297 16.3857ZM22.4766 24.126C22.5904 24.129 22.6963 24.1318 22.6963 24.1318C22.7391 24.1376 22.7821 24.1415 22.8252 24.1436C22.9275 24.1493 23.1556 24.193 23.4434 24.2725C23.9267 24.413 24.552 24.7053 25.2041 25.1221C26.5197 25.9659 27.933 27.2798 29.2705 28.7812V28.7842C30.1029 29.7153 30.9184 30.7869 31.7402 31.8691C30.1379 34.8024 28.5202 37.6763 26.8008 40.459C24.4409 44.1992 21.9131 47.8084 19.1602 50.6924C17.822 52.0773 16.3213 53.2587 15.2607 53.7334C14.7017 53.9793 14.4244 54.0048 14.2676 53.9941C14.2393 53.9924 14.211 53.9914 14.1826 53.9912C13.7599 53.9863 13.4782 53.9067 13.1602 53.7393L13.1572 53.7363C12.5903 53.4403 11.8256 52.6265 11.335 51.3164C11.334 51.3125 11.333 51.3086 11.332 51.3047C10.8261 49.9913 10.5744 48.2617 10.5791 46.4473V46.4414V46.4385C10.6174 42.5159 11.3982 38.4125 12.7647 34.6699L12.7676 34.6641C14.1019 30.9604 16.1699 27.5003 18.542 25.626C19.7172 24.7188 20.8586 24.2549 22.0225 24.1465L22.4766 24.126ZM52.5234 24.126L52.9775 24.1465C54.1393 24.2547 55.2797 24.7182 56.4551 25.623C58.8291 27.4987 60.8976 30.959 62.2324 34.6641L62.2354 34.6699C63.6028 38.4153 64.3837 42.5221 64.4209 46.4473C64.4269 48.2609 64.1772 49.989 63.6709 51.3047C63.6689 51.3086 63.667 51.3125 63.665 51.3164C63.4922 51.7778 63.2714 51.9954 62.9033 52.1895C62.5352 52.3835 61.9885 52.5088 61.3271 52.5088C59.304 52.5088 57.9955 51.7348 56.7656 50.4609C54.0148 47.5821 51.4868 43.9776 49.1309 40.2422L49.1221 40.2305C47.4066 37.4548 45.4953 33.9907 43.8311 30.9346C44.4144 30.2407 44.8752 29.7398 45.7295 28.7842V28.7812C47.067 27.2798 48.4803 25.9659 49.7959 25.1221L49.7988 25.1191C50.4482 24.7045 51.0717 24.416 51.5537 24.2754L51.5566 24.2725C51.8482 24.194 52.0808 24.1488 52.1748 24.1436C52.2179 24.1415 52.2609 24.1376 52.3037 24.1318C52.3037 24.1318 52.4096 24.129 52.5234 24.126Z" fill="#FE7336"/>
</g>
<defs>
<clipPath id="clip0_7_358">
<rect width="75" height="75" fill="white"/>
</clipPath>
</defs>
</svg>
