<svg width="295" height="302" viewBox="0 0 295 302" fill="none" xmlns="http://www.w3.org/2000/svg">
<path fill-rule="evenodd" clip-rule="evenodd" d="M277.564 229.696C284.484 221.072 285.182 219.487 286.997 208.301C287.927 202.578 289.935 193.671 291.461 188.506C294.998 176.533 295.333 165.792 292.487 155.564C290.181 147.275 288.946 144.737 287.683 145.687C287.275 145.993 284.136 151.741 280.708 158.459C271.852 175.813 264.837 183.293 249.004 192.266C241.734 196.386 234.267 197.902 232.543 195.608C230.949 193.489 233.656 189.501 243.229 179.868C258.64 164.357 261.207 161.521 265.402 155.372C271.095 147.02 278.449 132.359 279.758 126.748C281.446 119.507 280.207 115.892 271.448 102.5C264.739 92.2419 262.141 87.184 258.941 78.1544C258.575 77.1199 257.913 76.7376 257.296 77.2022C255.644 78.4437 244.109 106.43 237.613 124.954C231.264 143.062 227.236 151.398 219.51 162.419C213.122 171.53 211.546 172.674 209.37 169.781C207.28 167 206.467 157.942 207.907 153.472C209.656 148.042 213.625 140.559 221.496 127.848C235.983 104.458 242.372 88.7781 243.901 72.8617C244.737 64.1595 244.111 62.1226 238.806 56.2741C234.56 51.5934 216.252 38.3656 213.289 37.8381C210.924 37.4167 210.93 37.3975 207.154 56.393C198.788 98.485 185.138 130.674 175.65 130.69C166.754 130.707 179.836 100.377 180.797 97.9756C190.069 74.8151 196.094 54.9136 198.52 39.4327C200.422 27.2978 196.735 23.0062 179.234 16.9828C173.443 14.9893 165.41 11.831 161.38 9.96401C157.35 8.097 153.65 6.8716 153.159 7.24118C152.667 7.61077 152.642 11.0074 153.104 14.7893C155.908 37.7847 155.577 53.0417 151.592 84.3469C148.712 106.982 145.303 115.614 139.045 116.12C135.646 116.395 135.712 108.859 139.312 85.5385C143.655 57.4049 144.779 43.483 143.92 28.5024C143.167 15.3807 141.748 9.89136 138.451 7.34687C134.551 4.33771 114.645 -0.134407 106.097 0.0781516C96.477 0.317397 86.6136 2.33973 85.3678 4.32861C84.5679 5.60437 85.4445 6.95831 92.4466 15.2696C101.684 26.2314 104.291 31.3119 108.231 46.0384C113.873 67.1219 115.516 98.5344 110.998 98.9472C109.085 99.1219 104.178 91.5729 101.67 84.5989C94.1197 63.5936 91.0043 42.488 81.324 21.8406C78.4319 15.6801 72.4758 10.2339 65.7669 9.30453C52.8478 7.51841 39.3435 12.3721 28.592 18.9786C16.7856 26.2326 14.1886 27.2681 10.9367 26.0147C9.70417 25.5402 8.44174 25.3421 8.13161 25.5753C7.82149 25.8085 7.7398 28.9414 7.95188 32.5365C8.18153 36.4462 7.35401 42.3844 5.89206 47.3158C2.95385 57.2293 3.60399 59.6881 11.1983 67.3677C21.4577 77.7415 31.8598 84.2383 45.3273 88.6819C54.826 91.8156 58.1624 93.4708 60.0542 95.987C63.318 100.328 57.863 102.361 47.0602 100.831C39.2748 99.7283 22.5589 91.5366 14.7783 85.0104C4.3427 76.2592 3.27262 75.5199 2.20237 76.3246C0.875555 77.3222 -0.0156292 86.4072 0.719154 91.4397C1.1422 94.3371 2.61433 96.9673 7.30535 103.207C13.0643 110.866 13.6935 111.415 20.7786 114.971C29.0027 119.097 43.128 122.209 59.9827 123.608C88.0212 125.934 100.283 128.888 101.642 133.647C102.911 138.087 81.5618 143.857 71.0168 141.923C58.0446 139.544 55.584 138.896 43.4538 134.657C28.5014 129.433 19.8874 125.075 13.9224 119.717C9.0546 115.346 7.6522 115.007 6.91759 118.025C6.2795 120.644 9.54229 135.933 12.2855 143.182C15.2103 150.91 22.0816 159.025 28.1434 161.914C37.3846 166.316 44.4309 168.175 54.1024 168.763C67.7838 169.594 75.0533 169.004 94.5231 165.483C112.944 162.15 120.229 162.127 122.031 165.395C123.002 167.158 122.713 167.727 119.844 169.705C114.725 173.233 94.0192 178.539 82.6169 179.245C66.439 180.247 47.6685 179.104 39.3793 176.612C36.1097 175.63 29.9582 173.359 25.7081 171.565C21.4577 169.772 17.6657 168.541 17.2804 168.831C15.4069 170.239 24.9927 190.778 31.6835 199.689C35.9265 205.34 41.0323 207.395 52.6694 208.138C70.6822 209.287 81.6334 207.41 107.341 198.767C119.135 194.803 129.964 191.468 131.406 191.357C137.563 190.883 134.214 198.663 125.386 205.345C118.848 210.294 109.672 214.196 94.5767 218.448C79.429 222.716 71.0332 223.402 55.6332 221.63C48.2906 220.785 41.9145 220.372 41.4621 220.712C39.3824 222.276 50.0605 237.679 58.4463 245.212C68.8714 254.576 80.6907 253.115 118.403 237.805C121.636 236.493 150.728 228.438 137.827 239.364C127.784 247.867 100.527 261.993 87.1092 265.648C82.0646 267.022 77.8894 268.481 77.8313 268.891C77.7734 269.3 80.7869 271.444 84.5279 273.656C88.2689 275.868 94.541 280.787 98.4639 284.589C102.388 288.39 107.865 292.716 110.635 294.204C117.047 297.647 128.845 299.194 136.545 297.603C149.675 294.889 152.273 294.591 157.357 295.212C160.303 295.572 164.134 296.956 166.011 298.339C173.884 304.139 182.808 301.25 189.57 290.712C194.435 283.131 194.932 276.589 191.888 260.186C191.053 255.689 175.235 224.238 187.727 217.476C197.107 210.423 210.922 227.063 216.991 231.138C229.077 239.254 242.701 247 258.17 244.32C263.425 243.41 271.362 237.425 277.564 229.696ZM179.415 180.756C176.973 180.639 174.149 176.865 173.462 172.8C172.824 169.023 174.826 160.418 177.514 155.387C179.168 152.29 180.142 151.465 184.652 149.342C195.74 144.122 201.036 149.755 196.112 161.53C190.878 174.049 184.827 181.017 179.415 180.756ZM152.831 146.166C149.355 141.542 152.857 128.324 157.668 127.912C160.113 127.702 162.907 130.622 162.864 133.341C162.799 137.477 159.779 144.265 157.113 146.27C154.739 148.055 154.242 148.043 152.831 146.166Z" fill="#21825C"/>
</svg>
